<svg class="rich-terminal" viewBox="0 0 1726 1074.8" xmlns="http://www.w3.org/2000/svg">
    <!-- Generated with Rich https://www.textualize.io -->
    <style>

    @font-face {
        font-family: "Fira Code";
        src: local("FiraCode-Regular"),
                url("https://cdnjs.cloudflare.com/ajax/libs/firacode/6.2.0/woff2/FiraCode-Regular.woff2") format("woff2"),
                url("https://cdnjs.cloudflare.com/ajax/libs/firacode/6.2.0/woff/FiraCode-Regular.woff") format("woff");
        font-style: normal;
        font-weight: 400;
    }
    @font-face {
        font-family: "Fira Code";
        src: local("FiraCode-Bold"),
                url("https://cdnjs.cloudflare.com/ajax/libs/firacode/6.2.0/woff2/FiraCode-Bold.woff2") format("woff2"),
                url("https://cdnjs.cloudflare.com/ajax/libs/firacode/6.2.0/woff/FiraCode-Bold.woff") format("woff");
        font-style: bold;
        font-weight: 700;
    }

    .terminal-matrix {
        font-family: Fira Code, monospace;
        font-size: 20px;
        line-height: 24.4px;
        font-variant-east-asian: full-width;
    }

    .terminal-title {
        font-size: 18px;
        font-weight: bold;
        font-family: arial;
    }

    .terminal-r1 { fill: #c5c8c6 }
.terminal-r2 { fill: #a0a3a5 }
.terminal-r3 { fill: #58a6ff }
.terminal-r4 { fill: #6e7681;font-style: italic; }
.terminal-r5 { fill: #315988 }
.terminal-r6 { fill: #dfe0e0 }
.terminal-r7 { fill: #30363d }
.terminal-r8 { fill: #dfe0e0;text-decoration: underline; }
.terminal-r9 { fill: #9e9fa2 }
.terminal-r10 { fill: #a371f7 }
.terminal-r11 { fill: #e1e1e3 }
.terminal-r12 { fill: #d19922 }
.terminal-r13 { fill: #e2e2e0 }
.terminal-r14 { fill: #f75149 }
.terminal-r15 { fill: #e3e0e1 }
.terminal-r16 { fill: #3fb950 }
.terminal-r17 { fill: #e0e2e1 }
.terminal-r18 { fill: #6c6e72 }
.terminal-r19 { fill: #58a6ff;font-weight: bold }
.terminal-r20 { fill: #8b949e }
.terminal-r21 { fill: #9e9fa2;font-weight: bold }
.terminal-r22 { fill: #353a42 }
.terminal-r23 { fill: #9e9fa2;font-style: italic; }
.terminal-r24 { fill: #0d1117;font-style: italic; }
    </style>

    <defs>
    <clipPath id="terminal-clip-terminal">
      <rect x="0" y="0" width="1707.0" height="1023.8" />
    </clipPath>
    <clipPath id="terminal-line-0">
    <rect x="0" y="1.5" width="1708" height="24.65"/>
            </clipPath>
<clipPath id="terminal-line-1">
    <rect x="0" y="25.9" width="1708" height="24.65"/>
            </clipPath>
<clipPath id="terminal-line-2">
    <rect x="0" y="50.3" width="1708" height="24.65"/>
            </clipPath>
<clipPath id="terminal-line-3">
    <rect x="0" y="74.7" width="1708" height="24.65"/>
            </clipPath>
<clipPath id="terminal-line-4">
    <rect x="0" y="99.1" width="1708" height="24.65"/>
            </clipPath>
<clipPath id="terminal-line-5">
    <rect x="0" y="123.5" width="1708" height="24.65"/>
            </clipPath>
<clipPath id="terminal-line-6">
    <rect x="0" y="147.9" width="1708" height="24.65"/>
            </clipPath>
<clipPath id="terminal-line-7">
    <rect x="0" y="172.3" width="1708" height="24.65"/>
            </clipPath>
<clipPath id="terminal-line-8">
    <rect x="0" y="196.7" width="1708" height="24.65"/>
            </clipPath>
<clipPath id="terminal-line-9">
    <rect x="0" y="221.1" width="1708" height="24.65"/>
            </clipPath>
<clipPath id="terminal-line-10">
    <rect x="0" y="245.5" width="1708" height="24.65"/>
            </clipPath>
<clipPath id="terminal-line-11">
    <rect x="0" y="269.9" width="1708" height="24.65"/>
            </clipPath>
<clipPath id="terminal-line-12">
    <rect x="0" y="294.3" width="1708" height="24.65"/>
            </clipPath>
<clipPath id="terminal-line-13">
    <rect x="0" y="318.7" width="1708" height="24.65"/>
            </clipPath>
<clipPath id="terminal-line-14">
    <rect x="0" y="343.1" width="1708" height="24.65"/>
            </clipPath>
<clipPath id="terminal-line-15">
    <rect x="0" y="367.5" width="1708" height="24.65"/>
            </clipPath>
<clipPath id="terminal-line-16">
    <rect x="0" y="391.9" width="1708" height="24.65"/>
            </clipPath>
<clipPath id="terminal-line-17">
    <rect x="0" y="416.3" width="1708" height="24.65"/>
            </clipPath>
<clipPath id="terminal-line-18">
    <rect x="0" y="440.7" width="1708" height="24.65"/>
            </clipPath>
<clipPath id="terminal-line-19">
    <rect x="0" y="465.1" width="1708" height="24.65"/>
            </clipPath>
<clipPath id="terminal-line-20">
    <rect x="0" y="489.5" width="1708" height="24.65"/>
            </clipPath>
<clipPath id="terminal-line-21">
    <rect x="0" y="513.9" width="1708" height="24.65"/>
            </clipPath>
<clipPath id="terminal-line-22">
    <rect x="0" y="538.3" width="1708" height="24.65"/>
            </clipPath>
<clipPath id="terminal-line-23">
    <rect x="0" y="562.7" width="1708" height="24.65"/>
            </clipPath>
<clipPath id="terminal-line-24">
    <rect x="0" y="587.1" width="1708" height="24.65"/>
            </clipPath>
<clipPath id="terminal-line-25">
    <rect x="0" y="611.5" width="1708" height="24.65"/>
            </clipPath>
<clipPath id="terminal-line-26">
    <rect x="0" y="635.9" width="1708" height="24.65"/>
            </clipPath>
<clipPath id="terminal-line-27">
    <rect x="0" y="660.3" width="1708" height="24.65"/>
            </clipPath>
<clipPath id="terminal-line-28">
    <rect x="0" y="684.7" width="1708" height="24.65"/>
            </clipPath>
<clipPath id="terminal-line-29">
    <rect x="0" y="709.1" width="1708" height="24.65"/>
            </clipPath>
<clipPath id="terminal-line-30">
    <rect x="0" y="733.5" width="1708" height="24.65"/>
            </clipPath>
<clipPath id="terminal-line-31">
    <rect x="0" y="757.9" width="1708" height="24.65"/>
            </clipPath>
<clipPath id="terminal-line-32">
    <rect x="0" y="782.3" width="1708" height="24.65"/>
            </clipPath>
<clipPath id="terminal-line-33">
    <rect x="0" y="806.7" width="1708" height="24.65"/>
            </clipPath>
<clipPath id="terminal-line-34">
    <rect x="0" y="831.1" width="1708" height="24.65"/>
            </clipPath>
<clipPath id="terminal-line-35">
    <rect x="0" y="855.5" width="1708" height="24.65"/>
            </clipPath>
<clipPath id="terminal-line-36">
    <rect x="0" y="879.9" width="1708" height="24.65"/>
            </clipPath>
<clipPath id="terminal-line-37">
    <rect x="0" y="904.3" width="1708" height="24.65"/>
            </clipPath>
<clipPath id="terminal-line-38">
    <rect x="0" y="928.7" width="1708" height="24.65"/>
            </clipPath>
<clipPath id="terminal-line-39">
    <rect x="0" y="953.1" width="1708" height="24.65"/>
            </clipPath>
<clipPath id="terminal-line-40">
    <rect x="0" y="977.5" width="1708" height="24.65"/>
            </clipPath>
    </defs>

    <rect fill="#292929" stroke="rgba(255,255,255,0.35)" stroke-width="1" x="1" y="1" width="1724" height="1072.8" rx="8"/><text class="terminal-title" fill="#c5c8c6" text-anchor="middle" x="862" y="27">TextualApp</text>
            <g transform="translate(26,22)">
            <circle cx="0" cy="0" r="7" fill="#ff5f57"/>
            <circle cx="22" cy="0" r="7" fill="#febc2e"/>
            <circle cx="44" cy="0" r="7" fill="#28c840"/>
            </g>
        
    <g transform="translate(9, 41)" clip-path="url(#terminal-clip-terminal)">
    <rect fill="#0d1117" x="0" y="1.5" width="12.2" height="24.65" shape-rendering="crispEdges"/><rect fill="#111b27" x="12.2" y="1.5" width="61" height="24.65" shape-rendering="crispEdges"/><rect fill="#111b27" x="73.2" y="1.5" width="122" height="24.65" shape-rendering="crispEdges"/><rect fill="#111b27" x="195.2" y="1.5" width="73.2" height="24.65" shape-rendering="crispEdges"/><rect fill="#0d1117" x="268.4" y="1.5" width="1317.6" height="24.65" shape-rendering="crispEdges"/><rect fill="#0d1117" x="1586" y="1.5" width="24.4" height="24.65" shape-rendering="crispEdges"/><rect fill="#0d1117" x="1610.4" y="1.5" width="73.2" height="24.65" shape-rendering="crispEdges"/><rect fill="#0d1117" x="1683.6" y="1.5" width="24.4" height="24.65" shape-rendering="crispEdges"/><rect fill="#0d1117" x="0" y="25.9" width="12.2" height="24.65" shape-rendering="crispEdges"/><rect fill="#111b27" x="12.2" y="25.9" width="24.4" height="24.65" shape-rendering="crispEdges"/><rect fill="#111b27" x="36.6" y="25.9" width="207.4" height="24.65" shape-rendering="crispEdges"/><rect fill="#111b27" x="244" y="25.9" width="24.4" height="24.65" shape-rendering="crispEdges"/><rect fill="#0d1117" x="268.4" y="25.9" width="951.6" height="24.65" shape-rendering="crispEdges"/><rect fill="#0d1117" x="1220" y="25.9" width="463.6" height="24.65" shape-rendering="crispEdges"/><rect fill="#0d1117" x="1683.6" y="25.9" width="24.4" height="24.65" shape-rendering="crispEdges"/><rect fill="#0d1117" x="0" y="50.3" width="12.2" height="24.65" shape-rendering="crispEdges"/><rect fill="#111b27" x="12.2" y="50.3" width="256.2" height="24.65" shape-rendering="crispEdges"/><rect fill="#0d1117" x="268.4" y="50.3" width="1415.2" height="24.65" shape-rendering="crispEdges"/><rect fill="#0d1117" x="1683.6" y="50.3" width="24.4" height="24.65" shape-rendering="crispEdges"/><rect fill="#0d1117" x="0" y="74.7" width="1708" height="24.65" shape-rendering="crispEdges"/><rect fill="#0d1117" x="0" y="99.1" width="24.4" height="24.65" shape-rendering="crispEdges"/><rect fill="#0d1117" x="24.4" y="99.1" width="24.4" height="24.65" shape-rendering="crispEdges"/><rect fill="#0d1117" x="48.8" y="99.1" width="12.2" height="24.65" shape-rendering="crispEdges"/><rect fill="#0d1117" x="61" y="99.1" width="0" height="24.65" shape-rendering="crispEdges"/><rect fill="#0d1117" x="61" y="99.1" width="1183.4" height="24.65" shape-rendering="crispEdges"/><rect fill="#0d1117" x="1244.4" y="99.1" width="24.4" height="24.65" shape-rendering="crispEdges"/><rect fill="#0d1117" x="1268.8" y="99.1" width="12.2" height="24.65" shape-rendering="crispEdges"/><rect fill="#0d1117" x="1281" y="99.1" width="12.2" height="24.65" shape-rendering="crispEdges"/><rect fill="#0d1117" x="1293.2" y="99.1" width="12.2" height="24.65" shape-rendering="crispEdges"/><rect fill="#0d1117" x="1305.4" y="99.1" width="0" height="24.65" shape-rendering="crispEdges"/><rect fill="#0d1117" x="1305.4" y="99.1" width="12.2" height="24.65" shape-rendering="crispEdges"/><rect fill="#0d1117" x="1317.6" y="99.1" width="12.2" height="24.65" shape-rendering="crispEdges"/><rect fill="#0d1117" x="1329.8" y="99.1" width="12.2" height="24.65" shape-rendering="crispEdges"/><rect fill="#0d1117" x="1342" y="99.1" width="170.8" height="24.65" shape-rendering="crispEdges"/><rect fill="#0d1117" x="1512.8" y="99.1" width="12.2" height="24.65" shape-rendering="crispEdges"/><rect fill="#0d1117" x="1525" y="99.1" width="12.2" height="24.65" shape-rendering="crispEdges"/><rect fill="#0d1117" x="1537.2" y="99.1" width="12.2" height="24.65" shape-rendering="crispEdges"/><rect fill="#0d1117" x="1549.4" y="99.1" width="12.2" height="24.65" shape-rendering="crispEdges"/><rect fill="#0d1117" x="1561.6" y="99.1" width="12.2" height="24.65" shape-rendering="crispEdges"/><rect fill="#0d1117" x="1573.8" y="99.1" width="12.2" height="24.65" shape-rendering="crispEdges"/><rect fill="#0d1117" x="1586" y="99.1" width="12.2" height="24.65" shape-rendering="crispEdges"/><rect fill="#0d1117" x="1598.2" y="99.1" width="85.4" height="24.65" shape-rendering="crispEdges"/><rect fill="#0d1117" x="1683.6" y="99.1" width="24.4" height="24.65" shape-rendering="crispEdges"/><rect fill="#161b22" x="0" y="123.5" width="12.2" height="24.65" shape-rendering="crispEdges"/><rect fill="#0d1117" x="12.2" y="123.5" width="1695.8" height="24.65" shape-rendering="crispEdges"/><rect fill="#161b22" x="0" y="147.9" width="12.2" height="24.65" shape-rendering="crispEdges"/><rect fill="#0d1117" x="12.2" y="147.9" width="1695.8" height="24.65" shape-rendering="crispEdges"/><rect fill="#161b22" x="0" y="172.3" width="12.2" height="24.65" shape-rendering="crispEdges"/><rect fill="#0d1117" x="12.2" y="172.3" width="1695.8" height="24.65" shape-rendering="crispEdges"/><rect fill="#161b22" x="0" y="196.7" width="12.2" height="24.65" shape-rendering="crispEdges"/><rect fill="#0d1117" x="12.2" y="196.7" width="1695.8" height="24.65" shape-rendering="crispEdges"/><rect fill="#161b22" x="0" y="221.1" width="12.2" height="24.65" shape-rendering="crispEdges"/><rect fill="#0d1117" x="12.2" y="221.1" width="1695.8" height="24.65" shape-rendering="crispEdges"/><rect fill="#161b22" x="0" y="245.5" width="12.2" height="24.65" shape-rendering="crispEdges"/><rect fill="#0d1117" x="12.2" y="245.5" width="1695.8" height="24.65" shape-rendering="crispEdges"/><rect fill="#161b22" x="0" y="269.9" width="12.2" height="24.65" shape-rendering="crispEdges"/><rect fill="#0d1117" x="12.2" y="269.9" width="1695.8" height="24.65" shape-rendering="crispEdges"/><rect fill="#161b22" x="0" y="294.3" width="12.2" height="24.65" shape-rendering="crispEdges"/><rect fill="#0d1117" x="12.2" y="294.3" width="1695.8" height="24.65" shape-rendering="crispEdges"/><rect fill="#161b22" x="0" y="318.7" width="12.2" height="24.65" shape-rendering="crispEdges"/><rect fill="#0d1117" x="12.2" y="318.7" width="1695.8" height="24.65" shape-rendering="crispEdges"/><rect fill="#161b22" x="0" y="343.1" width="12.2" height="24.65" shape-rendering="crispEdges"/><rect fill="#0d1117" x="12.2" y="343.1" width="1695.8" height="24.65" shape-rendering="crispEdges"/><rect fill="#161b22" x="0" y="367.5" width="12.2" height="24.65" shape-rendering="crispEdges"/><rect fill="#0d1117" x="12.2" y="367.5" width="1695.8" height="24.65" shape-rendering="crispEdges"/><rect fill="#161b22" x="0" y="391.9" width="12.2" height="24.65" shape-rendering="crispEdges"/><rect fill="#0d1117" x="12.2" y="391.9" width="1695.8" height="24.65" shape-rendering="crispEdges"/><rect fill="#161b22" x="0" y="416.3" width="12.2" height="24.65" shape-rendering="crispEdges"/><rect fill="#0d1117" x="12.2" y="416.3" width="1695.8" height="24.65" shape-rendering="crispEdges"/><rect fill="#161b22" x="0" y="440.7" width="12.2" height="24.65" shape-rendering="crispEdges"/><rect fill="#0d1117" x="12.2" y="440.7" width="1695.8" height="24.65" shape-rendering="crispEdges"/><rect fill="#161b22" x="0" y="465.1" width="12.2" height="24.65" shape-rendering="crispEdges"/><rect fill="#0d1117" x="12.2" y="465.1" width="1159" height="24.65" shape-rendering="crispEdges"/><rect fill="#1c1a2d" x="1171.2" y="465.1" width="12.2" height="24.65" shape-rendering="crispEdges"/><rect fill="#1c1a2d" x="1183.4" y="465.1" width="475.8" height="24.65" shape-rendering="crispEdges"/><rect fill="#0d1117" x="1659.2" y="465.1" width="48.8" height="24.65" shape-rendering="crispEdges"/><rect fill="#161b22" x="0" y="489.5" width="12.2" height="24.65" shape-rendering="crispEdges"/><rect fill="#0d1117" x="12.2" y="489.5" width="1159" height="24.65" shape-rendering="crispEdges"/><rect fill="#1c1a2d" x="1171.2" y="489.5" width="12.2" height="24.65" shape-rendering="crispEdges"/><rect fill="#1c1a2d" x="1183.4" y="489.5" width="24.4" height="24.65" shape-rendering="crispEdges"/><rect fill="#1c1a2d" x="1207.8" y="489.5" width="366" height="24.65" shape-rendering="crispEdges"/><rect fill="#1c1a2d" x="1573.8" y="489.5" width="85.4" height="24.65" shape-rendering="crispEdges"/><rect fill="#0d1117" x="1659.2" y="489.5" width="48.8" height="24.65" shape-rendering="crispEdges"/><rect fill="#161b22" x="0" y="513.9" width="12.2" height="24.65" shape-rendering="crispEdges"/><rect fill="#0d1117" x="12.2" y="513.9" width="1159" height="24.65" shape-rendering="crispEdges"/><rect fill="#1c1a2d" x="1171.2" y="513.9" width="12.2" height="24.65" shape-rendering="crispEdges"/><rect fill="#1c1a2d" x="1183.4" y="513.9" width="475.8" height="24.65" shape-rendering="crispEdges"/><rect fill="#0d1117" x="1659.2" y="513.9" width="48.8" height="24.65" shape-rendering="crispEdges"/><rect fill="#161b22" x="0" y="538.3" width="12.2" height="24.65" shape-rendering="crispEdges"/><rect fill="#0d1117" x="12.2" y="538.3" width="1695.8" height="24.65" shape-rendering="crispEdges"/><rect fill="#161b22" x="0" y="562.7" width="12.2" height="24.65" shape-rendering="crispEdges"/><rect fill="#0d1117" x="12.2" y="562.7" width="1122.4" height="24.65" shape-rendering="crispEdges"/><rect fill="#242118" x="1134.6" y="562.7" width="12.2" height="24.65" shape-rendering="crispEdges"/><rect fill="#242118" x="1146.8" y="562.7" width="512.4" height="24.65" shape-rendering="crispEdges"/><rect fill="#0d1117" x="1659.2" y="562.7" width="48.8" height="24.65" shape-rendering="crispEdges"/><rect fill="#161b22" x="0" y="587.1" width="12.2" height="24.65" shape-rendering="crispEdges"/><rect fill="#0d1117" x="12.2" y="587.1" width="1122.4" height="24.65" shape-rendering="crispEdges"/><rect fill="#242118" x="1134.6" y="587.1" width="12.2" height="24.65" shape-rendering="crispEdges"/><rect fill="#242118" x="1146.8" y="587.1" width="24.4" height="24.65" shape-rendering="crispEdges"/><rect fill="#242118" x="1171.2" y="587.1" width="463.6" height="24.65" shape-rendering="crispEdges"/><rect fill="#242118" x="1634.8" y="587.1" width="24.4" height="24.65" shape-rendering="crispEdges"/><rect fill="#0d1117" x="1659.2" y="587.1" width="48.8" height="24.65" shape-rendering="crispEdges"/><rect fill="#161b22" x="0" y="611.5" width="12.2" height="24.65" shape-rendering="crispEdges"/><rect fill="#0d1117" x="12.2" y="611.5" width="1122.4" height="24.65" shape-rendering="crispEdges"/><rect fill="#242118" x="1134.6" y="611.5" width="12.2" height="24.65" shape-rendering="crispEdges"/><rect fill="#242118" x="1146.8" y="611.5" width="512.4" height="24.65" shape-rendering="crispEdges"/><rect fill="#0d1117" x="1659.2" y="611.5" width="48.8" height="24.65" shape-rendering="crispEdges"/><rect fill="#161b22" x="0" y="635.9" width="12.2" height="24.65" shape-rendering="crispEdges"/><rect fill="#0d1117" x="12.2" y="635.9" width="1695.8" height="24.65" shape-rendering="crispEdges"/><rect fill="#161b22" x="0" y="660.3" width="12.2" height="24.65" shape-rendering="crispEdges"/><rect fill="#0d1117" x="12.2" y="660.3" width="1146.8" height="24.65" shape-rendering="crispEdges"/><rect fill="#29181d" x="1159" y="660.3" width="12.2" height="24.65" shape-rendering="crispEdges"/><rect fill="#29181d" x="1171.2" y="660.3" width="488" height="24.65" shape-rendering="crispEdges"/><rect fill="#0d1117" x="1659.2" y="660.3" width="48.8" height="24.65" shape-rendering="crispEdges"/><rect fill="#161b22" x="0" y="684.7" width="12.2" height="24.65" shape-rendering="crispEdges"/><rect fill="#0d1117" x="12.2" y="684.7" width="1146.8" height="24.65" shape-rendering="crispEdges"/><rect fill="#29181d" x="1159" y="684.7" width="12.2" height="24.65" shape-rendering="crispEdges"/><rect fill="#29181d" x="1171.2" y="684.7" width="24.4" height="24.65" shape-rendering="crispEdges"/><rect fill="#29181d" x="1195.6" y="684.7" width="439.2" height="24.65" shape-rendering="crispEdges"/><rect fill="#29181d" x="1634.8" y="684.7" width="24.4" height="24.65" shape-rendering="crispEdges"/><rect fill="#0d1117" x="1659.2" y="684.7" width="48.8" height="24.65" shape-rendering="crispEdges"/><rect fill="#161b22" x="0" y="709.1" width="12.2" height="24.65" shape-rendering="crispEdges"/><rect fill="#0d1117" x="12.2" y="709.1" width="1146.8" height="24.65" shape-rendering="crispEdges"/><rect fill="#29181d" x="1159" y="709.1" width="12.2" height="24.65" shape-rendering="crispEdges"/><rect fill="#29181d" x="1171.2" y="709.1" width="488" height="24.65" shape-rendering="crispEdges"/><rect fill="#0d1117" x="1659.2" y="709.1" width="48.8" height="24.65" shape-rendering="crispEdges"/><rect fill="#161b22" x="0" y="733.5" width="12.2" height="24.65" shape-rendering="crispEdges"/><rect fill="#0d1117" x="12.2" y="733.5" width="1695.8" height="24.65" shape-rendering="crispEdges"/><rect fill="#161b22" x="0" y="757.9" width="12.2" height="24.65" shape-rendering="crispEdges"/><rect fill="#0d1117" x="12.2" y="757.9" width="1159" height="24.65" shape-rendering="crispEdges"/><rect fill="#13251d" x="1171.2" y="757.9" width="12.2" height="24.65" shape-rendering="crispEdges"/><rect fill="#13251d" x="1183.4" y="757.9" width="475.8" height="24.65" shape-rendering="crispEdges"/><rect fill="#0d1117" x="1659.2" y="757.9" width="48.8" height="24.65" shape-rendering="crispEdges"/><rect fill="#161b22" x="0" y="782.3" width="12.2" height="24.65" shape-rendering="crispEdges"/><rect fill="#0d1117" x="12.2" y="782.3" width="1159" height="24.65" shape-rendering="crispEdges"/><rect fill="#13251d" x="1171.2" y="782.3" width="12.2" height="24.65" shape-rendering="crispEdges"/><rect fill="#13251d" x="1183.4" y="782.3" width="24.4" height="24.65" shape-rendering="crispEdges"/><rect fill="#13251d" x="1207.8" y="782.3" width="329.4" height="24.65" shape-rendering="crispEdges"/><rect fill="#13251d" x="1537.2" y="782.3" width="122" height="24.65" shape-rendering="crispEdges"/><rect fill="#0d1117" x="1659.2" y="782.3" width="48.8" height="24.65" shape-rendering="crispEdges"/><rect fill="#161b22" x="0" y="806.7" width="12.2" height="24.65" shape-rendering="crispEdges"/><rect fill="#0d1117" x="12.2" y="806.7" width="1159" height="24.65" shape-rendering="crispEdges"/><rect fill="#13251d" x="1171.2" y="806.7" width="12.2" height="24.65" shape-rendering="crispEdges"/><rect fill="#13251d" x="1183.4" y="806.7" width="475.8" height="24.65" shape-rendering="crispEdges"/><rect fill="#0d1117" x="1659.2" y="806.7" width="48.8" height="24.65" shape-rendering="crispEdges"/><rect fill="#161b22" x="0" y="831.1" width="12.2" height="24.65" shape-rendering="crispEdges"/><rect fill="#0d1117" x="12.2" y="831.1" width="1695.8" height="24.65" shape-rendering="crispEdges"/><rect fill="#0d1117" x="0" y="855.5" width="793" height="24.65" shape-rendering="crispEdges"/><rect fill="#0d1117" x="793" y="855.5" width="24.4" height="24.65" shape-rendering="crispEdges"/><rect fill="#0d1117" x="817.4" y="855.5" width="12.2" height="24.65" shape-rendering="crispEdges"/><rect fill="#0d1117" x="829.6" y="855.5" width="12.2" height="24.65" shape-rendering="crispEdges"/><rect fill="#0d1117" x="841.8" y="855.5" width="36.6" height="24.65" shape-rendering="crispEdges"/><rect fill="#0d1117" x="878.4" y="855.5" width="24.4" height="24.65" shape-rendering="crispEdges"/><rect fill="#0d1117" x="902.8" y="855.5" width="805.2" height="24.65" shape-rendering="crispEdges"/><rect fill="#0d1117" x="0" y="879.9" width="12.2" height="24.65" shape-rendering="crispEdges"/><rect fill="#0d1117" x="12.2" y="879.9" width="1683.6" height="24.65" shape-rendering="crispEdges"/><rect fill="#0d1117" x="1695.8" y="879.9" width="12.2" height="24.65" shape-rendering="crispEdges"/><rect fill="#0d1117" x="0" y="904.3" width="36.6" height="24.65" shape-rendering="crispEdges"/><rect fill="#0d1117" x="36.6" y="904.3" width="97.6" height="24.65" shape-rendering="crispEdges"/><rect fill="#0d1117" x="134.2" y="904.3" width="36.6" height="24.65" shape-rendering="crispEdges"/><rect fill="#0d1117" x="170.8" y="904.3" width="109.8" height="24.65" shape-rendering="crispEdges"/><rect fill="#0d1117" x="280.6" y="904.3" width="36.6" height="24.65" shape-rendering="crispEdges"/><rect fill="#0d1117" x="317.2" y="904.3" width="122" height="24.65" shape-rendering="crispEdges"/><rect fill="#0d1117" x="439.2" y="904.3" width="36.6" height="24.65" shape-rendering="crispEdges"/><rect fill="#0d1117" x="475.8" y="904.3" width="85.4" height="24.65" shape-rendering="crispEdges"/><rect fill="#0d1117" x="561.2" y="904.3" width="36.6" height="24.65" shape-rendering="crispEdges"/><rect fill="#0d1117" x="597.8" y="904.3" width="134.2" height="24.65" shape-rendering="crispEdges"/><rect fill="#0d1117" x="732" y="904.3" width="36.6" height="24.65" shape-rendering="crispEdges"/><rect fill="#0d1117" x="768.6" y="904.3" width="36.6" height="24.65" shape-rendering="crispEdges"/><rect fill="#0d1117" x="805.2" y="904.3" width="366" height="24.65" shape-rendering="crispEdges"/><rect fill="#0d1117" x="1171.2" y="904.3" width="207.4" height="24.65" shape-rendering="crispEdges"/><rect fill="#0d1117" x="1378.6" y="904.3" width="329.4" height="24.65" shape-rendering="crispEdges"/><rect fill="#0d1117" x="0" y="928.7" width="24.4" height="24.65" shape-rendering="crispEdges"/><rect fill="#0d1117" x="24.4" y="928.7" width="122" height="24.65" shape-rendering="crispEdges"/><rect fill="#0d1117" x="146.4" y="928.7" width="12.2" height="24.65" shape-rendering="crispEdges"/><rect fill="#0d1117" x="158.6" y="928.7" width="134.2" height="24.65" shape-rendering="crispEdges"/><rect fill="#0d1117" x="292.8" y="928.7" width="12.2" height="24.65" shape-rendering="crispEdges"/><rect fill="#0d1117" x="305" y="928.7" width="146.4" height="24.65" shape-rendering="crispEdges"/><rect fill="#0d1117" x="451.4" y="928.7" width="12.2" height="24.65" shape-rendering="crispEdges"/><rect fill="#0d1117" x="463.6" y="928.7" width="109.8" height="24.65" shape-rendering="crispEdges"/><rect fill="#0d1117" x="573.4" y="928.7" width="12.2" height="24.65" shape-rendering="crispEdges"/><rect fill="#0d1117" x="585.6" y="928.7" width="158.6" height="24.65" shape-rendering="crispEdges"/><rect fill="#0d1117" x="744.2" y="928.7" width="12.2" height="24.65" shape-rendering="crispEdges"/><rect fill="#0d1117" x="756.4" y="928.7" width="61" height="24.65" shape-rendering="crispEdges"/><rect fill="#0d1117" x="817.4" y="928.7" width="353.8" height="24.65" shape-rendering="crispEdges"/><rect fill="#0d1117" x="1171.2" y="928.7" width="512.4" height="24.65" shape-rendering="crispEdges"/><rect fill="#0d1117" x="1683.6" y="928.7" width="24.4" height="24.65" shape-rendering="crispEdges"/><rect fill="#0d1117" x="0" y="953.1" width="24.4" height="24.65" shape-rendering="crispEdges"/><rect fill="#0d1117" x="24.4" y="953.1" width="1659.2" height="24.65" shape-rendering="crispEdges"/><rect fill="#0d1117" x="1683.6" y="953.1" width="24.4" height="24.65" shape-rendering="crispEdges"/><rect fill="#0d1117" x="0" y="977.5" width="24.4" height="24.65" shape-rendering="crispEdges"/><rect fill="#0d1117" x="24.4" y="977.5" width="12.2" height="24.65" shape-rendering="crispEdges"/><rect fill="#0d1117" x="36.6" y="977.5" width="12.2" height="24.65" shape-rendering="crispEdges"/><rect fill="#e6edf3" x="48.8" y="977.5" width="12.2" height="24.65" shape-rendering="crispEdges"/><rect fill="#0d1117" x="61" y="977.5" width="829.6" height="24.65" shape-rendering="crispEdges"/><rect fill="#0d1117" x="890.6" y="977.5" width="597.8" height="24.65" shape-rendering="crispEdges"/><rect fill="#0d1117" x="1488.4" y="977.5" width="158.6" height="24.65" shape-rendering="crispEdges"/><rect fill="#0d1117" x="1647" y="977.5" width="24.4" height="24.65" shape-rendering="crispEdges"/><rect fill="#0d1117" x="1671.4" y="977.5" width="12.2" height="24.65" shape-rendering="crispEdges"/><rect fill="#0d1117" x="1683.6" y="977.5" width="24.4" height="24.65" shape-rendering="crispEdges"/><rect fill="#161b22" x="0" y="1001.9" width="12.2" height="24.65" shape-rendering="crispEdges"/><rect fill="#161b22" x="12.2" y="1001.9" width="305" height="24.65" shape-rendering="crispEdges"/><rect fill="#161b22" x="317.2" y="1001.9" width="1390.8" height="24.65" shape-rendering="crispEdges"/>
    <g class="terminal-matrix">
    <text class="terminal-r2" x="73.2" y="20" textLength="122" clip-path="url(#terminal-line-0)">&#160;✓&#160;agent_a</text><text class="terminal-r3" x="1586" y="20" textLength="24.4" clip-path="url(#terminal-line-0)">◈&#160;</text><text class="terminal-r3" x="1610.4" y="20" textLength="73.2" clip-path="url(#terminal-line-0)">Turn&#160;1</text><text class="terminal-r1" x="1708" y="20" textLength="12.2" clip-path="url(#terminal-line-0)">
</text><text class="terminal-r2" x="36.6" y="44.4" textLength="207.4" clip-path="url(#terminal-line-1)">&#160;&#160;&#160;claude-sonne…&#160;</text><text class="terminal-r4" x="1220" y="44.4" textLength="463.6" clip-path="url(#terminal-line-1)">Create&#160;a&#160;poem&#160;about&#160;Bob&#160;Dylan&#160;and&#160;wri…</text><text class="terminal-r1" x="1708" y="44.4" textLength="12.2" clip-path="url(#terminal-line-1)">
</text><text class="terminal-r5" x="12.2" y="68.8" textLength="256.2" clip-path="url(#terminal-line-2)">▁▁▁▁▁▁▁▁▁▁▁▁▁▁▁▁▁▁▁▁▁</text><text class="terminal-r1" x="1708" y="68.8" textLength="12.2" clip-path="url(#terminal-line-2)">
</text><text class="terminal-r7" x="0" y="93.2" textLength="1708" clip-path="url(#terminal-line-3)">────────────────────────────────────────────────────────────────────────────────────────────────────────────────────────────────────────────</text><text class="terminal-r1" x="1708" y="93.2" textLength="12.2" clip-path="url(#terminal-line-3)">
</text><text class="terminal-r8" x="24.4" y="117.6" textLength="24.4" clip-path="url(#terminal-line-4)">R1</text><text class="terminal-r9" x="1244.4" y="117.6" textLength="12.2" clip-path="url(#terminal-line-4)">📂</text><text class="terminal-r9" x="1281" y="117.6" textLength="12.2" clip-path="url(#terminal-line-4)">·</text><text class="terminal-r9" x="1317.6" y="117.6" textLength="12.2" clip-path="url(#terminal-line-4)">·</text><text class="terminal-r6" x="1342" y="117.6" textLength="170.8" clip-path="url(#terminal-line-4)">⏱&#160;0:00&#160;/&#160;10:00</text><text class="terminal-r9" x="1525" y="117.6" textLength="12.2" clip-path="url(#terminal-line-4)">·</text><text class="terminal-r9" x="1549.4" y="117.6" textLength="12.2" clip-path="url(#terminal-line-4)">-</text><text class="terminal-r9" x="1573.8" y="117.6" textLength="12.2" clip-path="url(#terminal-line-4)">·</text><text class="terminal-r9" x="1598.2" y="117.6" textLength="85.4" clip-path="url(#terminal-line-4)">$--.---</text><text class="terminal-r1" x="1708" y="117.6" textLength="12.2" clip-path="url(#terminal-line-4)">
</text><text class="terminal-r3" x="0" y="142" textLength="12.2" clip-path="url(#terminal-line-5)">█</text><text class="terminal-r1" x="1708" y="142" textLength="12.2" clip-path="url(#terminal-line-5)">
</text><text class="terminal-r3" x="0" y="166.4" textLength="12.2" clip-path="url(#terminal-line-6)">█</text><text class="terminal-r1" x="1708" y="166.4" textLength="12.2" clip-path="url(#terminal-line-6)">
</text><text class="terminal-r3" x="0" y="190.8" textLength="12.2" clip-path="url(#terminal-line-7)">█</text><text class="terminal-r1" x="1708" y="190.8" textLength="12.2" clip-path="url(#terminal-line-7)">
</text><text class="terminal-r3" x="0" y="215.2" textLength="12.2" clip-path="url(#terminal-line-8)">█</text><text class="terminal-r1" x="1708" y="215.2" textLength="12.2" clip-path="url(#terminal-line-8)">
</text><text class="terminal-r3" x="0" y="239.6" textLength="12.2" clip-path="url(#terminal-line-9)">█</text><text class="terminal-r1" x="1708" y="239.6" textLength="12.2" clip-path="url(#terminal-line-9)">
</text><text class="terminal-r3" x="0" y="264" textLength="12.2" clip-path="url(#terminal-line-10)">█</text><text class="terminal-r1" x="1708" y="264" textLength="12.2" clip-path="url(#terminal-line-10)">
</text><text class="terminal-r3" x="0" y="288.4" textLength="12.2" clip-path="url(#terminal-line-11)">█</text><text class="terminal-r1" x="1708" y="288.4" textLength="12.2" clip-path="url(#terminal-line-11)">
</text><text class="terminal-r3" x="0" y="312.8" textLength="12.2" clip-path="url(#terminal-line-12)">█</text><text class="terminal-r1" x="1708" y="312.8" textLength="12.2" clip-path="url(#terminal-line-12)">
</text><text class="terminal-r3" x="0" y="337.2" textLength="12.2" clip-path="url(#terminal-line-13)">█</text><text class="terminal-r1" x="1708" y="337.2" textLength="12.2" clip-path="url(#terminal-line-13)">
</text><text class="terminal-r3" x="0" y="361.6" textLength="12.2" clip-path="url(#terminal-line-14)">█</text><text class="terminal-r1" x="1708" y="361.6" textLength="12.2" clip-path="url(#terminal-line-14)">
</text><text class="terminal-r3" x="0" y="386" textLength="12.2" clip-path="url(#terminal-line-15)">█</text><text class="terminal-r1" x="1708" y="386" textLength="12.2" clip-path="url(#terminal-line-15)">
</text><text class="terminal-r3" x="0" y="410.4" textLength="12.2" clip-path="url(#terminal-line-16)">█</text><text class="terminal-r1" x="1708" y="410.4" textLength="12.2" clip-path="url(#terminal-line-16)">
</text><text class="terminal-r3" x="0" y="434.8" textLength="12.2" clip-path="url(#terminal-line-17)">█</text><text class="terminal-r1" x="1708" y="434.8" textLength="12.2" clip-path="url(#terminal-line-17)">
</text><text class="terminal-r3" x="0" y="459.2" textLength="12.2" clip-path="url(#terminal-line-18)">█</text><text class="terminal-r1" x="1708" y="459.2" textLength="12.2" clip-path="url(#terminal-line-18)">
</text><text class="terminal-r3" x="0" y="483.6" textLength="12.2" clip-path="url(#terminal-line-19)">█</text><text class="terminal-r10" x="1171.2" y="483.6" textLength="12.2" clip-path="url(#terminal-line-19)">▎</text><text class="terminal-r1" x="1708" y="483.6" textLength="12.2" clip-path="url(#terminal-line-19)">
</text><text class="terminal-r3" x="0" y="508" textLength="12.2" clip-path="url(#terminal-line-20)">█</text><text class="terminal-r10" x="1171.2" y="508" textLength="12.2" clip-path="url(#terminal-line-20)">▎</text><text class="terminal-r11" x="1207.8" y="508" textLength="366" clip-path="url(#terminal-line-20)">Info:&#160;collecting&#160;agent&#160;updates</text><text class="terminal-r1" x="1708" y="508" textLength="12.2" clip-path="url(#terminal-line-20)">
</text><text class="terminal-r3" x="0" y="532.4" textLength="12.2" clip-path="url(#terminal-line-21)">█</text><text class="terminal-r10" x="1171.2" y="532.4" textLength="12.2" clip-path="url(#terminal-line-21)">▎</text><text class="terminal-r1" x="1708" y="532.4" textLength="12.2" clip-path="url(#terminal-line-21)">
</text><text class="terminal-r3" x="0" y="556.8" textLength="12.2" clip-path="url(#terminal-line-22)">█</text><text class="terminal-r1" x="1708" y="556.8" textLength="12.2" clip-path="url(#terminal-line-22)">
</text><text class="terminal-r3" x="0" y="581.2" textLength="12.2" clip-path="url(#terminal-line-23)">█</text><text class="terminal-r12" x="1134.6" y="581.2" textLength="12.2" clip-path="url(#terminal-line-23)">▎</text><text class="terminal-r1" x="1708" y="581.2" textLength="12.2" clip-path="url(#terminal-line-23)">
</text><text class="terminal-r3" x="0" y="605.6" textLength="12.2" clip-path="url(#terminal-line-24)">█</text><text class="terminal-r12" x="1134.6" y="605.6" textLength="12.2" clip-path="url(#terminal-line-24)">▎</text><text class="terminal-r13" x="1171.2" y="605.6" textLength="463.6" clip-path="url(#terminal-line-24)">Warning:&#160;context&#160;budget&#160;is&#160;nearly&#160;full</text><text class="terminal-r1" x="1708" y="605.6" textLength="12.2" clip-path="url(#terminal-line-24)">
</text><text class="terminal-r3" x="0" y="630" textLength="12.2" clip-path="url(#terminal-line-25)">█</text><text class="terminal-r12" x="1134.6" y="630" textLength="12.2" clip-path="url(#terminal-line-25)">▎</text><text class="terminal-r1" x="1708" y="630" textLength="12.2" clip-path="url(#terminal-line-25)">
</text><text class="terminal-r3" x="0" y="654.4" textLength="12.2" clip-path="url(#terminal-line-26)">█</text><text class="terminal-r1" x="1708" y="654.4" textLength="12.2" clip-path="url(#terminal-line-26)">
</text><text class="terminal-r3" x="0" y="678.8" textLength="12.2" clip-path="url(#terminal-line-27)">█</text><text class="terminal-r14" x="1159" y="678.8" textLength="12.2" clip-path="url(#terminal-line-27)">▎</text><text class="terminal-r1" x="1708" y="678.8" textLength="12.2" clip-path="url(#terminal-line-27)">
</text><text class="terminal-r3" x="0" y="703.2" textLength="12.2" clip-path="url(#terminal-line-28)">█</text><text class="terminal-r14" x="1159" y="703.2" textLength="12.2" clip-path="url(#terminal-line-28)">▎</text><text class="terminal-r15" x="1195.6" y="703.2" textLength="439.2" clip-path="url(#terminal-line-28)">Error:&#160;failed&#160;to&#160;parse&#160;plan&#160;metadata</text><text class="terminal-r1" x="1708" y="703.2" textLength="12.2" clip-path="url(#terminal-line-28)">
</text><text class="terminal-r3" x="0" y="727.6" textLength="12.2" clip-path="url(#terminal-line-29)">█</text><text class="terminal-r14" x="1159" y="727.6" textLength="12.2" clip-path="url(#terminal-line-29)">▎</text><text class="terminal-r1" x="1708" y="727.6" textLength="12.2" clip-path="url(#terminal-line-29)">
</text><text class="terminal-r3" x="0" y="752" textLength="12.2" clip-path="url(#terminal-line-30)">█</text><text class="terminal-r1" x="1708" y="752" textLength="12.2" clip-path="url(#terminal-line-30)">
</text><text class="terminal-r3" x="0" y="776.4" textLength="12.2" clip-path="url(#terminal-line-31)">█</text><text class="terminal-r16" x="1171.2" y="776.4" textLength="12.2" clip-path="url(#terminal-line-31)">▎</text><text class="terminal-r1" x="1708" y="776.4" textLength="12.2" clip-path="url(#terminal-line-31)">
</text><text class="terminal-r3" x="0" y="800.8" textLength="12.2" clip-path="url(#terminal-line-32)">█</text><text class="terminal-r16" x="1171.2" y="800.8" textLength="12.2" clip-path="url(#terminal-line-32)">▎</text><text class="terminal-r17" x="1207.8" y="800.8" textLength="329.4" clip-path="url(#terminal-line-32)">Success:&#160;final&#160;answer&#160;saved</text><text class="terminal-r1" x="1708" y="800.8" textLength="12.2" clip-path="url(#terminal-line-32)">
</text><text class="terminal-r3" x="0" y="825.2" textLength="12.2" clip-path="url(#terminal-line-33)">█</text><text class="terminal-r16" x="1171.2" y="825.2" textLength="12.2" clip-path="url(#terminal-line-33)">▎</text><text class="terminal-r1" x="1708" y="825.2" textLength="12.2" clip-path="url(#terminal-line-33)">
</text><text class="terminal-r3" x="0" y="849.6" textLength="12.2" clip-path="url(#terminal-line-34)">█</text><text class="terminal-r1" x="1708" y="849.6" textLength="12.2" clip-path="url(#terminal-line-34)">
</text><text class="terminal-r18" x="793" y="874" textLength="24.4" clip-path="url(#terminal-line-35)">╭&#160;</text><text class="terminal-r19" x="817.4" y="874" textLength="12.2" clip-path="url(#terminal-line-35)">A</text><text class="terminal-r18" x="841.8" y="874" textLength="36.6" clip-path="url(#terminal-line-35)">○&#160;&#160;</text><text class="terminal-r18" x="878.4" y="874" textLength="24.4" clip-path="url(#terminal-line-35)">&#160;╮</text><text class="terminal-r1" x="1708" y="874" textLength="12.2" clip-path="url(#terminal-line-35)">
</text><text class="terminal-r7" x="12.2" y="898.4" textLength="1683.6" clip-path="url(#terminal-line-36)">──────────────────────────────────────────────────────────────────────────────────────────────────────────────────────────────────────────</text><text class="terminal-r1" x="1708" y="898.4" textLength="12.2" clip-path="url(#terminal-line-36)">
</text><text class="terminal-r20" x="36.6" y="922.8" textLength="97.6" clip-path="url(#terminal-line-37)">&#160;○&#160;Norm&#160;</text><text class="terminal-r3" x="170.8" y="922.8" textLength="109.8" clip-path="url(#terminal-line-37)">&#160;◉&#160;Multi&#160;</text><text class="terminal-r3" x="317.2" y="922.8" textLength="122" clip-path="url(#terminal-line-37)">&#160;◉&#160;Refine&#160;</text><text class="terminal-r20" x="475.8" y="922.8" textLength="85.4" clip-path="url(#terminal-line-37)">&#160;◉&#160;Par&#160;</text><text class="terminal-r20" x="597.8" y="922.8" textLength="134.2" clip-path="url(#terminal-line-37)">&#160;○&#160;Persona&#160;</text><text class="terminal-r21" x="768.6" y="922.8" textLength="36.6" clip-path="url(#terminal-line-37)">&#160;?&#160;</text><text class="terminal-r9" x="1171.2" y="922.8" textLength="207.4" clip-path="url(#terminal-line-37)">Vim&#160;off&#160;•&#160;/vim&#160;on</text><text class="terminal-r1" x="1708" y="922.8" textLength="12.2" clip-path="url(#terminal-line-37)">
</text><text class="terminal-r7" x="24.4" y="947.2" textLength="122" clip-path="url(#terminal-line-38)">▁▁▁▁▁▁▁▁▁▁</text><text class="terminal-r3" x="158.6" y="947.2" textLength="134.2" clip-path="url(#terminal-line-38)">▁▁▁▁▁▁▁▁▁▁▁</text><text class="terminal-r3" x="305" y="947.2" textLength="146.4" clip-path="url(#terminal-line-38)">▁▁▁▁▁▁▁▁▁▁▁▁</text><text class="terminal-r7" x="463.6" y="947.2" textLength="109.8" clip-path="url(#terminal-line-38)">▁▁▁▁▁▁▁▁▁</text><text class="terminal-r7" x="585.6" y="947.2" textLength="158.6" clip-path="url(#terminal-line-38)">▁▁▁▁▁▁▁▁▁▁▁▁▁</text><text class="terminal-r22" x="756.4" y="947.2" textLength="61" clip-path="url(#terminal-line-38)">▁▁▁▁▁</text><text class="terminal-r23" x="1171.2" y="947.2" textLength="512.4" clip-path="url(#terminal-line-38)">Ctrl+P:&#160;CWD&#160;off&#160;(~/GitHubProjects/MassGen)</text><text class="terminal-r1" x="1708" y="947.2" textLength="12.2" clip-path="url(#terminal-line-38)">
</text><text class="terminal-r22" x="24.4" y="971.6" textLength="1659.2" clip-path="url(#terminal-line-39)">╭──────────────────────────────────────────────────────────────────────────────────────────────────────────────────────────────────────╮</text><text class="terminal-r1" x="1708" y="971.6" textLength="12.2" clip-path="url(#terminal-line-39)">
</text><text class="terminal-r22" x="24.4" y="996" textLength="12.2" clip-path="url(#terminal-line-40)">│</text><text class="terminal-r24" x="48.8" y="996" textLength="12.2" clip-path="url(#terminal-line-40)">E</text><text class="terminal-r23" x="61" y="996" textLength="829.6" clip-path="url(#terminal-line-40)">nter&#160;to&#160;submit&#160;•&#160;Shift+Enter&#160;for&#160;newline&#160;•&#160;@&#160;for&#160;files&#160;•&#160;Ctrl+G&#160;help</text><text class="terminal-r21" x="1488.4" y="996" textLength="158.6" clip-path="url(#terminal-line-40)">&#160;Inject:&#160;all&#160;</text><text class="terminal-r22" x="1671.4" y="996" textLength="12.2" clip-path="url(#terminal-line-40)">│</text><text class="terminal-r1" x="1708" y="996" textLength="12.2" clip-path="url(#terminal-line-40)">
</text><text class="terminal-r10" x="12.2" y="1020.4" textLength="305" clip-path="url(#terminal-line-41)">⌨&#160;Keyboard&#160;input&#160;disabled</text>
    </g>
    </g>
</svg>
