<svg class="rich-terminal" viewBox="0 0 1848 1123.6" xmlns="http://www.w3.org/2000/svg">
    <!-- Generated with Rich https://www.textualize.io -->
    <style>

    @font-face {
        font-family: "Fira Code";
        src: local("FiraCode-Regular"),
                url("https://cdnjs.cloudflare.com/ajax/libs/firacode/6.2.0/woff2/FiraCode-Regular.woff2") format("woff2"),
                url("https://cdnjs.cloudflare.com/ajax/libs/firacode/6.2.0/woff/FiraCode-Regular.woff") format("woff");
        font-style: normal;
        font-weight: 400;
    }
    @font-face {
        font-family: "Fira Code";
        src: local("FiraCode-Bold"),
                url("https://cdnjs.cloudflare.com/ajax/libs/firacode/6.2.0/woff2/FiraCode-Bold.woff2") format("woff2"),
                url("https://cdnjs.cloudflare.com/ajax/libs/firacode/6.2.0/woff/FiraCode-Bold.woff") format("woff");
        font-style: bold;
        font-weight: 700;
    }

    .terminal-matrix {
        font-family: Fira Code, monospace;
        font-size: 20px;
        line-height: 24.4px;
        font-variant-east-asian: full-width;
    }

    .terminal-title {
        font-size: 18px;
        font-weight: bold;
        font-family: arial;
    }

    .terminal-r1 { fill: #c5c8c6 }
.terminal-r2 { fill: #a1a3a6;font-weight: bold }
.terminal-r3 { fill: #58a6ff;font-weight: bold }
.terminal-r4 { fill: #a0a3a5 }
.terminal-r5 { fill: #58a6ff }
.terminal-r6 { fill: #6e7681;font-style: italic; }
.terminal-r7 { fill: #30363d }
.terminal-r8 { fill: #dfe0e0;text-decoration: underline; }
.terminal-r9 { fill: #dfe0e0 }
.terminal-r10 { fill: #9e9fa2 }
.terminal-r11 { fill: #4b5563 }
.terminal-r12 { fill: #9ca3af;font-weight: bold }
.terminal-r13 { fill: #3e73b0 }
.terminal-r14 { fill: #70baff }
.terminal-r15 { fill: #fd971f;font-weight: bold }
.terminal-r16 { fill: #e2e2e3;font-weight: bold }
.terminal-r17 { fill: #a0a2a5 }
.terminal-r18 { fill: #e2e2e3;font-style: italic; }
.terminal-r19 { fill: #916e22 }
.terminal-r20 { fill: #d19922 }
.terminal-r21 { fill: #d19922;font-weight: bold }
.terminal-r22 { fill: #353a42 }
.terminal-r23 { fill: #9e9fa2;font-style: italic; }
.terminal-r24 { fill: #9e9fa2;font-weight: bold }
    </style>

    <defs>
    <clipPath id="terminal-clip-terminal">
      <rect x="0" y="0" width="1829.0" height="1072.6" />
    </clipPath>
    <clipPath id="terminal-line-0">
    <rect x="0" y="1.5" width="1830" height="24.65"/>
            </clipPath>
<clipPath id="terminal-line-1">
    <rect x="0" y="25.9" width="1830" height="24.65"/>
            </clipPath>
<clipPath id="terminal-line-2">
    <rect x="0" y="50.3" width="1830" height="24.65"/>
            </clipPath>
<clipPath id="terminal-line-3">
    <rect x="0" y="74.7" width="1830" height="24.65"/>
            </clipPath>
<clipPath id="terminal-line-4">
    <rect x="0" y="99.1" width="1830" height="24.65"/>
            </clipPath>
<clipPath id="terminal-line-5">
    <rect x="0" y="123.5" width="1830" height="24.65"/>
            </clipPath>
<clipPath id="terminal-line-6">
    <rect x="0" y="147.9" width="1830" height="24.65"/>
            </clipPath>
<clipPath id="terminal-line-7">
    <rect x="0" y="172.3" width="1830" height="24.65"/>
            </clipPath>
<clipPath id="terminal-line-8">
    <rect x="0" y="196.7" width="1830" height="24.65"/>
            </clipPath>
<clipPath id="terminal-line-9">
    <rect x="0" y="221.1" width="1830" height="24.65"/>
            </clipPath>
<clipPath id="terminal-line-10">
    <rect x="0" y="245.5" width="1830" height="24.65"/>
            </clipPath>
<clipPath id="terminal-line-11">
    <rect x="0" y="269.9" width="1830" height="24.65"/>
            </clipPath>
<clipPath id="terminal-line-12">
    <rect x="0" y="294.3" width="1830" height="24.65"/>
            </clipPath>
<clipPath id="terminal-line-13">
    <rect x="0" y="318.7" width="1830" height="24.65"/>
            </clipPath>
<clipPath id="terminal-line-14">
    <rect x="0" y="343.1" width="1830" height="24.65"/>
            </clipPath>
<clipPath id="terminal-line-15">
    <rect x="0" y="367.5" width="1830" height="24.65"/>
            </clipPath>
<clipPath id="terminal-line-16">
    <rect x="0" y="391.9" width="1830" height="24.65"/>
            </clipPath>
<clipPath id="terminal-line-17">
    <rect x="0" y="416.3" width="1830" height="24.65"/>
            </clipPath>
<clipPath id="terminal-line-18">
    <rect x="0" y="440.7" width="1830" height="24.65"/>
            </clipPath>
<clipPath id="terminal-line-19">
    <rect x="0" y="465.1" width="1830" height="24.65"/>
            </clipPath>
<clipPath id="terminal-line-20">
    <rect x="0" y="489.5" width="1830" height="24.65"/>
            </clipPath>
<clipPath id="terminal-line-21">
    <rect x="0" y="513.9" width="1830" height="24.65"/>
            </clipPath>
<clipPath id="terminal-line-22">
    <rect x="0" y="538.3" width="1830" height="24.65"/>
            </clipPath>
<clipPath id="terminal-line-23">
    <rect x="0" y="562.7" width="1830" height="24.65"/>
            </clipPath>
<clipPath id="terminal-line-24">
    <rect x="0" y="587.1" width="1830" height="24.65"/>
            </clipPath>
<clipPath id="terminal-line-25">
    <rect x="0" y="611.5" width="1830" height="24.65"/>
            </clipPath>
<clipPath id="terminal-line-26">
    <rect x="0" y="635.9" width="1830" height="24.65"/>
            </clipPath>
<clipPath id="terminal-line-27">
    <rect x="0" y="660.3" width="1830" height="24.65"/>
            </clipPath>
<clipPath id="terminal-line-28">
    <rect x="0" y="684.7" width="1830" height="24.65"/>
            </clipPath>
<clipPath id="terminal-line-29">
    <rect x="0" y="709.1" width="1830" height="24.65"/>
            </clipPath>
<clipPath id="terminal-line-30">
    <rect x="0" y="733.5" width="1830" height="24.65"/>
            </clipPath>
<clipPath id="terminal-line-31">
    <rect x="0" y="757.9" width="1830" height="24.65"/>
            </clipPath>
<clipPath id="terminal-line-32">
    <rect x="0" y="782.3" width="1830" height="24.65"/>
            </clipPath>
<clipPath id="terminal-line-33">
    <rect x="0" y="806.7" width="1830" height="24.65"/>
            </clipPath>
<clipPath id="terminal-line-34">
    <rect x="0" y="831.1" width="1830" height="24.65"/>
            </clipPath>
<clipPath id="terminal-line-35">
    <rect x="0" y="855.5" width="1830" height="24.65"/>
            </clipPath>
<clipPath id="terminal-line-36">
    <rect x="0" y="879.9" width="1830" height="24.65"/>
            </clipPath>
<clipPath id="terminal-line-37">
    <rect x="0" y="904.3" width="1830" height="24.65"/>
            </clipPath>
<clipPath id="terminal-line-38">
    <rect x="0" y="928.7" width="1830" height="24.65"/>
            </clipPath>
<clipPath id="terminal-line-39">
    <rect x="0" y="953.1" width="1830" height="24.65"/>
            </clipPath>
<clipPath id="terminal-line-40">
    <rect x="0" y="977.5" width="1830" height="24.65"/>
            </clipPath>
<clipPath id="terminal-line-41">
    <rect x="0" y="1001.9" width="1830" height="24.65"/>
            </clipPath>
<clipPath id="terminal-line-42">
    <rect x="0" y="1026.3" width="1830" height="24.65"/>
            </clipPath>
    </defs>

    <rect fill="#292929" stroke="rgba(255,255,255,0.35)" stroke-width="1" x="1" y="1" width="1846" height="1121.6" rx="8"/><text class="terminal-title" fill="#c5c8c6" text-anchor="middle" x="923" y="27">TextualApp</text>
            <g transform="translate(26,22)">
            <circle cx="0" cy="0" r="7" fill="#ff5f57"/>
            <circle cx="22" cy="0" r="7" fill="#febc2e"/>
            <circle cx="44" cy="0" r="7" fill="#28c840"/>
            </g>
        
    <g transform="translate(9, 41)" clip-path="url(#terminal-clip-terminal)">
    <rect fill="#161b22" x="0" y="1.5" width="24.4" height="24.65" shape-rendering="crispEdges"/><rect fill="#161b22" x="24.4" y="1.5" width="97.6" height="24.65" shape-rendering="crispEdges"/><rect fill="#161b22" x="122" y="1.5" width="12.2" height="24.65" shape-rendering="crispEdges"/><rect fill="#161b22" x="134.2" y="1.5" width="378.2" height="24.65" shape-rendering="crispEdges"/><rect fill="#161b22" x="512.4" y="1.5" width="1317.6" height="24.65" shape-rendering="crispEdges"/><rect fill="#0d1117" x="0" y="25.9" width="12.2" height="24.65" shape-rendering="crispEdges"/><rect fill="#111b27" x="12.2" y="25.9" width="24.4" height="24.65" shape-rendering="crispEdges"/><rect fill="#111b27" x="36.6" y="25.9" width="292.8" height="24.65" shape-rendering="crispEdges"/><rect fill="#111b27" x="329.4" y="25.9" width="24.4" height="24.65" shape-rendering="crispEdges"/><rect fill="#0d1117" x="353.8" y="25.9" width="1354.2" height="24.65" shape-rendering="crispEdges"/><rect fill="#0d1117" x="1708" y="25.9" width="24.4" height="24.65" shape-rendering="crispEdges"/><rect fill="#0d1117" x="1732.4" y="25.9" width="73.2" height="24.65" shape-rendering="crispEdges"/><rect fill="#0d1117" x="1805.6" y="25.9" width="24.4" height="24.65" shape-rendering="crispEdges"/><rect fill="#0d1117" x="0" y="50.3" width="12.2" height="24.65" shape-rendering="crispEdges"/><rect fill="#111b27" x="12.2" y="50.3" width="158.6" height="24.65" shape-rendering="crispEdges"/><rect fill="#111b27" x="170.8" y="50.3" width="12.2" height="24.65" shape-rendering="crispEdges"/><rect fill="#111b27" x="183" y="50.3" width="170.8" height="24.65" shape-rendering="crispEdges"/><rect fill="#0d1117" x="353.8" y="50.3" width="988.2" height="24.65" shape-rendering="crispEdges"/><rect fill="#0d1117" x="1342" y="50.3" width="463.6" height="24.65" shape-rendering="crispEdges"/><rect fill="#0d1117" x="1805.6" y="50.3" width="24.4" height="24.65" shape-rendering="crispEdges"/><rect fill="#0d1117" x="0" y="74.7" width="1830" height="24.65" shape-rendering="crispEdges"/><rect fill="#0d1117" x="0" y="99.1" width="1830" height="24.65" shape-rendering="crispEdges"/><rect fill="#0d1117" x="0" y="123.5" width="24.4" height="24.65" shape-rendering="crispEdges"/><rect fill="#0d1117" x="24.4" y="123.5" width="24.4" height="24.65" shape-rendering="crispEdges"/><rect fill="#0d1117" x="48.8" y="123.5" width="12.2" height="24.65" shape-rendering="crispEdges"/><rect fill="#0d1117" x="61" y="123.5" width="0" height="24.65" shape-rendering="crispEdges"/><rect fill="#0d1117" x="61" y="123.5" width="1390.8" height="24.65" shape-rendering="crispEdges"/><rect fill="#0d1117" x="1451.8" y="123.5" width="24.4" height="24.65" shape-rendering="crispEdges"/><rect fill="#0d1117" x="1476.2" y="123.5" width="12.2" height="24.65" shape-rendering="crispEdges"/><rect fill="#0d1117" x="1488.4" y="123.5" width="12.2" height="24.65" shape-rendering="crispEdges"/><rect fill="#0d1117" x="1500.6" y="123.5" width="12.2" height="24.65" shape-rendering="crispEdges"/><rect fill="#0d1117" x="1512.8" y="123.5" width="0" height="24.65" shape-rendering="crispEdges"/><rect fill="#0d1117" x="1512.8" y="123.5" width="12.2" height="24.65" shape-rendering="crispEdges"/><rect fill="#0d1117" x="1525" y="123.5" width="12.2" height="24.65" shape-rendering="crispEdges"/><rect fill="#0d1117" x="1537.2" y="123.5" width="12.2" height="24.65" shape-rendering="crispEdges"/><rect fill="#0d1117" x="1549.4" y="123.5" width="85.4" height="24.65" shape-rendering="crispEdges"/><rect fill="#0d1117" x="1634.8" y="123.5" width="12.2" height="24.65" shape-rendering="crispEdges"/><rect fill="#0d1117" x="1647" y="123.5" width="12.2" height="24.65" shape-rendering="crispEdges"/><rect fill="#0d1117" x="1659.2" y="123.5" width="12.2" height="24.65" shape-rendering="crispEdges"/><rect fill="#0d1117" x="1671.4" y="123.5" width="12.2" height="24.65" shape-rendering="crispEdges"/><rect fill="#0d1117" x="1683.6" y="123.5" width="12.2" height="24.65" shape-rendering="crispEdges"/><rect fill="#0d1117" x="1695.8" y="123.5" width="12.2" height="24.65" shape-rendering="crispEdges"/><rect fill="#0d1117" x="1708" y="123.5" width="12.2" height="24.65" shape-rendering="crispEdges"/><rect fill="#0d1117" x="1720.2" y="123.5" width="85.4" height="24.65" shape-rendering="crispEdges"/><rect fill="#0d1117" x="1805.6" y="123.5" width="24.4" height="24.65" shape-rendering="crispEdges"/><rect fill="#0d1117" x="0" y="147.9" width="1830" height="24.65" shape-rendering="crispEdges"/><rect fill="#0d1117" x="0" y="172.3" width="24.4" height="24.65" shape-rendering="crispEdges"/><rect fill="#0d1117" x="24.4" y="172.3" width="73.2" height="24.65" shape-rendering="crispEdges"/><rect fill="#0d1117" x="97.6" y="172.3" width="109.8" height="24.65" shape-rendering="crispEdges"/><rect fill="#0d1117" x="207.4" y="172.3" width="1561.6" height="24.65" shape-rendering="crispEdges"/><rect fill="#0d1117" x="1769" y="172.3" width="61" height="24.65" shape-rendering="crispEdges"/><rect fill="#0d1117" x="0" y="196.7" width="1830" height="24.65" shape-rendering="crispEdges"/><rect fill="#0d1117" x="0" y="221.1" width="36.6" height="24.65" shape-rendering="crispEdges"/><rect fill="#0d1117" x="36.6" y="221.1" width="12.2" height="24.65" shape-rendering="crispEdges"/><rect fill="#0d1117" x="48.8" y="221.1" width="24.4" height="24.65" shape-rendering="crispEdges"/><rect fill="#0d1117" x="73.2" y="221.1" width="890.6" height="24.65" shape-rendering="crispEdges"/><rect fill="#0d1117" x="963.8" y="221.1" width="866.2" height="24.65" shape-rendering="crispEdges"/><rect fill="#0d1117" x="0" y="245.5" width="1830" height="24.65" shape-rendering="crispEdges"/><rect fill="#0d1117" x="0" y="269.9" width="1830" height="24.65" shape-rendering="crispEdges"/><rect fill="#0d1117" x="0" y="294.3" width="1830" height="24.65" shape-rendering="crispEdges"/><rect fill="#0d1117" x="0" y="318.7" width="1830" height="24.65" shape-rendering="crispEdges"/><rect fill="#0d1117" x="0" y="343.1" width="1830" height="24.65" shape-rendering="crispEdges"/><rect fill="#0d1117" x="0" y="367.5" width="1830" height="24.65" shape-rendering="crispEdges"/><rect fill="#0d1117" x="0" y="391.9" width="1830" height="24.65" shape-rendering="crispEdges"/><rect fill="#0d1117" x="0" y="416.3" width="1830" height="24.65" shape-rendering="crispEdges"/><rect fill="#0d1117" x="0" y="440.7" width="1830" height="24.65" shape-rendering="crispEdges"/><rect fill="#0d1117" x="0" y="465.1" width="1830" height="24.65" shape-rendering="crispEdges"/><rect fill="#0d1117" x="0" y="489.5" width="1830" height="24.65" shape-rendering="crispEdges"/><rect fill="#0d1117" x="0" y="513.9" width="1830" height="24.65" shape-rendering="crispEdges"/><rect fill="#0d1117" x="0" y="538.3" width="1830" height="24.65" shape-rendering="crispEdges"/><rect fill="#0d1117" x="0" y="562.7" width="1830" height="24.65" shape-rendering="crispEdges"/><rect fill="#0d1117" x="0" y="587.1" width="1830" height="24.65" shape-rendering="crispEdges"/><rect fill="#0d1117" x="0" y="611.5" width="1830" height="24.65" shape-rendering="crispEdges"/><rect fill="#0d1117" x="0" y="635.9" width="1830" height="24.65" shape-rendering="crispEdges"/><rect fill="#0d1117" x="0" y="660.3" width="1830" height="24.65" shape-rendering="crispEdges"/><rect fill="#0d1117" x="0" y="684.7" width="1830" height="24.65" shape-rendering="crispEdges"/><rect fill="#0d1117" x="0" y="709.1" width="1830" height="24.65" shape-rendering="crispEdges"/><rect fill="#0d1117" x="0" y="733.5" width="1830" height="24.65" shape-rendering="crispEdges"/><rect fill="#0d1117" x="0" y="757.9" width="1830" height="24.65" shape-rendering="crispEdges"/><rect fill="#0d1117" x="0" y="782.3" width="1830" height="24.65" shape-rendering="crispEdges"/><rect fill="#0d1117" x="0" y="806.7" width="1830" height="24.65" shape-rendering="crispEdges"/><rect fill="#0d1117" x="0" y="831.1" width="1830" height="24.65" shape-rendering="crispEdges"/><rect fill="#0d1117" x="0" y="855.5" width="1830" height="24.65" shape-rendering="crispEdges"/><rect fill="#0d1117" x="0" y="879.9" width="1830" height="24.65" shape-rendering="crispEdges"/><rect fill="#0d1117" x="0" y="904.3" width="1830" height="24.65" shape-rendering="crispEdges"/><rect fill="#0d1117" x="0" y="928.7" width="12.2" height="24.65" shape-rendering="crispEdges"/><rect fill="#21262d" x="12.2" y="928.7" width="12.2" height="24.65" shape-rendering="crispEdges"/><rect fill="#21262d" x="24.4" y="928.7" width="12.2" height="24.65" shape-rendering="crispEdges"/><rect fill="#21262d" x="36.6" y="928.7" width="36.6" height="24.65" shape-rendering="crispEdges"/><rect fill="#21262d" x="73.2" y="928.7" width="207.4" height="24.65" shape-rendering="crispEdges"/><rect fill="#21262d" x="280.6" y="928.7" width="390.4" height="24.65" shape-rendering="crispEdges"/><rect fill="#21262d" x="671" y="928.7" width="36.6" height="24.65" shape-rendering="crispEdges"/><rect fill="#21262d" x="707.6" y="928.7" width="122" height="24.65" shape-rendering="crispEdges"/><rect fill="#21262d" x="829.6" y="928.7" width="280.6" height="24.65" shape-rendering="crispEdges"/><rect fill="#21262d" x="1110.2" y="928.7" width="183" height="24.65" shape-rendering="crispEdges"/><rect fill="#21262d" x="1293.2" y="928.7" width="97.6" height="24.65" shape-rendering="crispEdges"/><rect fill="#161b22" x="1390.8" y="928.7" width="12.2" height="24.65" shape-rendering="crispEdges"/><rect fill="#161b22" x="1403" y="928.7" width="183" height="24.65" shape-rendering="crispEdges"/><rect fill="#161b22" x="1586" y="928.7" width="12.2" height="24.65" shape-rendering="crispEdges"/><rect fill="#21262d" x="1598.2" y="928.7" width="12.2" height="24.65" shape-rendering="crispEdges"/><rect fill="#161b22" x="1610.4" y="928.7" width="12.2" height="24.65" shape-rendering="crispEdges"/><rect fill="#161b22" x="1622.6" y="928.7" width="158.6" height="24.65" shape-rendering="crispEdges"/><rect fill="#161b22" x="1781.2" y="928.7" width="24.4" height="24.65" shape-rendering="crispEdges"/><rect fill="#21262d" x="1805.6" y="928.7" width="12.2" height="24.65" shape-rendering="crispEdges"/><rect fill="#0d1117" x="1817.8" y="928.7" width="12.2" height="24.65" shape-rendering="crispEdges"/><rect fill="#0d1117" x="0" y="953.1" width="0" height="24.65" shape-rendering="crispEdges"/><rect fill="#0d1117" x="0" y="953.1" width="1830" height="24.65" shape-rendering="crispEdges"/><rect fill="#161b22" x="0" y="977.5" width="12.2" height="24.65" shape-rendering="crispEdges"/><rect fill="#161b22" x="12.2" y="977.5" width="36.6" height="24.65" shape-rendering="crispEdges"/><rect fill="#161b22" x="48.8" y="977.5" width="12.2" height="24.65" shape-rendering="crispEdges"/><rect fill="#161b22" x="61" y="977.5" width="24.4" height="24.65" shape-rendering="crispEdges"/><rect fill="#161b22" x="85.4" y="977.5" width="24.4" height="24.65" shape-rendering="crispEdges"/><rect fill="#161b22" x="109.8" y="977.5" width="183" height="24.65" shape-rendering="crispEdges"/><rect fill="#161b22" x="292.8" y="977.5" width="207.4" height="24.65" shape-rendering="crispEdges"/><rect fill="#161b22" x="500.2" y="977.5" width="1329.8" height="24.65" shape-rendering="crispEdges"/><rect fill="#0d1117" x="0" y="1001.9" width="24.4" height="24.65" shape-rendering="crispEdges"/><rect fill="#0d1117" x="24.4" y="1001.9" width="1781.2" height="24.65" shape-rendering="crispEdges"/><rect fill="#0d1117" x="1805.6" y="1001.9" width="24.4" height="24.65" shape-rendering="crispEdges"/><rect fill="#0d1117" x="0" y="1026.3" width="24.4" height="24.65" shape-rendering="crispEdges"/><rect fill="#0d1117" x="24.4" y="1026.3" width="12.2" height="24.65" shape-rendering="crispEdges"/><rect fill="#0d1117" x="36.6" y="1026.3" width="12.2" height="24.65" shape-rendering="crispEdges"/><rect fill="#0d1117" x="48.8" y="1026.3" width="524.6" height="24.65" shape-rendering="crispEdges"/><rect fill="#0d1117" x="573.4" y="1026.3" width="1037" height="24.65" shape-rendering="crispEdges"/><rect fill="#0d1117" x="1610.4" y="1026.3" width="158.6" height="24.65" shape-rendering="crispEdges"/><rect fill="#0d1117" x="1769" y="1026.3" width="24.4" height="24.65" shape-rendering="crispEdges"/><rect fill="#0d1117" x="1793.4" y="1026.3" width="12.2" height="24.65" shape-rendering="crispEdges"/><rect fill="#0d1117" x="1805.6" y="1026.3" width="24.4" height="24.65" shape-rendering="crispEdges"/><rect fill="#0d1117" x="0" y="1050.7" width="24.4" height="24.65" shape-rendering="crispEdges"/><rect fill="#0d1117" x="24.4" y="1050.7" width="1781.2" height="24.65" shape-rendering="crispEdges"/><rect fill="#0d1117" x="1805.6" y="1050.7" width="24.4" height="24.65" shape-rendering="crispEdges"/>
    <g class="terminal-matrix">
    <text class="terminal-r2" x="24.4" y="20" textLength="97.6" clip-path="url(#terminal-line-0)">&#160;←&#160;Back&#160;</text><text class="terminal-r3" x="134.2" y="20" textLength="378.2" clip-path="url(#terminal-line-0)">Subagent:&#160;parity_queue_subagent</text><text class="terminal-r1" x="1830" y="20" textLength="12.2" clip-path="url(#terminal-line-0)">
</text><text class="terminal-r4" x="36.6" y="44.4" textLength="292.8" clip-path="url(#terminal-line-1)">&#160;✓&#160;parity_queue_subagent</text><text class="terminal-r5" x="1708" y="44.4" textLength="24.4" clip-path="url(#terminal-line-1)">◈&#160;</text><text class="terminal-r5" x="1732.4" y="44.4" textLength="73.2" clip-path="url(#terminal-line-1)">Turn&#160;1</text><text class="terminal-r1" x="1830" y="44.4" textLength="12.2" clip-path="url(#terminal-line-1)">
</text><text class="terminal-r6" x="1342" y="68.8" textLength="463.6" clip-path="url(#terminal-line-2)">Refine&#160;runtime-injection&#160;handling&#160;whi…</text><text class="terminal-r1" x="1830" y="68.8" textLength="12.2" clip-path="url(#terminal-line-2)">
</text><text class="terminal-r7" x="0" y="93.2" textLength="1830" clip-path="url(#terminal-line-3)">──────────────────────────────────────────────────────────────────────────────────────────────────────────────────────────────────────────────────────</text><text class="terminal-r1" x="1830" y="93.2" textLength="12.2" clip-path="url(#terminal-line-3)">
</text><text class="terminal-r7" x="0" y="117.6" textLength="1830" clip-path="url(#terminal-line-4)">──────────────────────────────────────────────────────────────────────────────────────────────────────────────────────────────────────────────────────</text><text class="terminal-r1" x="1830" y="117.6" textLength="12.2" clip-path="url(#terminal-line-4)">
</text><text class="terminal-r8" x="24.4" y="142" textLength="24.4" clip-path="url(#terminal-line-5)">R1</text><text class="terminal-r10" x="1451.8" y="142" textLength="12.2" clip-path="url(#terminal-line-5)">📂</text><text class="terminal-r10" x="1488.4" y="142" textLength="12.2" clip-path="url(#terminal-line-5)">·</text><text class="terminal-r10" x="1525" y="142" textLength="12.2" clip-path="url(#terminal-line-5)">·</text><text class="terminal-r9" x="1549.4" y="142" textLength="85.4" clip-path="url(#terminal-line-5)">⏱&#160;--:--</text><text class="terminal-r10" x="1647" y="142" textLength="12.2" clip-path="url(#terminal-line-5)">·</text><text class="terminal-r10" x="1671.4" y="142" textLength="12.2" clip-path="url(#terminal-line-5)">-</text><text class="terminal-r10" x="1695.8" y="142" textLength="12.2" clip-path="url(#terminal-line-5)">·</text><text class="terminal-r10" x="1720.2" y="142" textLength="85.4" clip-path="url(#terminal-line-5)">$--.---</text><text class="terminal-r1" x="1830" y="142" textLength="12.2" clip-path="url(#terminal-line-5)">
</text><text class="terminal-r1" x="1830" y="166.4" textLength="12.2" clip-path="url(#terminal-line-6)">
</text><text class="terminal-r11" x="24.4" y="190.8" textLength="73.2" clip-path="url(#terminal-line-7)">──────</text><text class="terminal-r12" x="97.6" y="190.8" textLength="109.8" clip-path="url(#terminal-line-7)">&#160;Round&#160;1&#160;</text><text class="terminal-r11" x="207.4" y="190.8" textLength="1561.6" clip-path="url(#terminal-line-7)">────────────────────────────────────────────────────────────────────────────────────────────────────────────────────────────────</text><text class="terminal-r1" x="1830" y="190.8" textLength="12.2" clip-path="url(#terminal-line-7)">
</text><text class="terminal-r1" x="1830" y="215.2" textLength="12.2" clip-path="url(#terminal-line-8)">
</text><text class="terminal-r5" x="36.6" y="239.6" textLength="12.2" clip-path="url(#terminal-line-9)">│</text><text class="terminal-r13" x="73.2" y="239.6" textLength="890.6" clip-path="url(#terminal-line-9)">Refine&#160;runtime-injection&#160;handling&#160;while&#160;parent&#160;agent&#160;continues&#160;execution.</text><text class="terminal-r1" x="1830" y="239.6" textLength="12.2" clip-path="url(#terminal-line-9)">
</text><text class="terminal-r1" x="1830" y="264" textLength="12.2" clip-path="url(#terminal-line-10)">
</text><text class="terminal-r1" x="1830" y="288.4" textLength="12.2" clip-path="url(#terminal-line-11)">
</text><text class="terminal-r1" x="1830" y="312.8" textLength="12.2" clip-path="url(#terminal-line-12)">
</text><text class="terminal-r1" x="1830" y="337.2" textLength="12.2" clip-path="url(#terminal-line-13)">
</text><text class="terminal-r1" x="1830" y="361.6" textLength="12.2" clip-path="url(#terminal-line-14)">
</text><text class="terminal-r1" x="1830" y="386" textLength="12.2" clip-path="url(#terminal-line-15)">
</text><text class="terminal-r1" x="1830" y="410.4" textLength="12.2" clip-path="url(#terminal-line-16)">
</text><text class="terminal-r1" x="1830" y="434.8" textLength="12.2" clip-path="url(#terminal-line-17)">
</text><text class="terminal-r1" x="1830" y="459.2" textLength="12.2" clip-path="url(#terminal-line-18)">
</text><text class="terminal-r1" x="1830" y="483.6" textLength="12.2" clip-path="url(#terminal-line-19)">
</text><text class="terminal-r1" x="1830" y="508" textLength="12.2" clip-path="url(#terminal-line-20)">
</text><text class="terminal-r1" x="1830" y="532.4" textLength="12.2" clip-path="url(#terminal-line-21)">
</text><text class="terminal-r1" x="1830" y="556.8" textLength="12.2" clip-path="url(#terminal-line-22)">
</text><text class="terminal-r1" x="1830" y="581.2" textLength="12.2" clip-path="url(#terminal-line-23)">
</text><text class="terminal-r1" x="1830" y="605.6" textLength="12.2" clip-path="url(#terminal-line-24)">
</text><text class="terminal-r1" x="1830" y="630" textLength="12.2" clip-path="url(#terminal-line-25)">
</text><text class="terminal-r1" x="1830" y="654.4" textLength="12.2" clip-path="url(#terminal-line-26)">
</text><text class="terminal-r1" x="1830" y="678.8" textLength="12.2" clip-path="url(#terminal-line-27)">
</text><text class="terminal-r1" x="1830" y="703.2" textLength="12.2" clip-path="url(#terminal-line-28)">
</text><text class="terminal-r1" x="1830" y="727.6" textLength="12.2" clip-path="url(#terminal-line-29)">
</text><text class="terminal-r1" x="1830" y="752" textLength="12.2" clip-path="url(#terminal-line-30)">
</text><text class="terminal-r1" x="1830" y="776.4" textLength="12.2" clip-path="url(#terminal-line-31)">
</text><text class="terminal-r1" x="1830" y="800.8" textLength="12.2" clip-path="url(#terminal-line-32)">
</text><text class="terminal-r1" x="1830" y="825.2" textLength="12.2" clip-path="url(#terminal-line-33)">
</text><text class="terminal-r1" x="1830" y="849.6" textLength="12.2" clip-path="url(#terminal-line-34)">
</text><text class="terminal-r1" x="1830" y="874" textLength="12.2" clip-path="url(#terminal-line-35)">
</text><text class="terminal-r1" x="1830" y="898.4" textLength="12.2" clip-path="url(#terminal-line-36)">
</text><text class="terminal-r1" x="1830" y="922.8" textLength="12.2" clip-path="url(#terminal-line-37)">
</text><text class="terminal-r14" x="12.2" y="947.2" textLength="12.2" clip-path="url(#terminal-line-38)">█</text><text class="terminal-r15" x="36.6" y="947.2" textLength="24.4" clip-path="url(#terminal-line-38)">📝&#160;</text><text class="terminal-r16" x="73.2" y="947.2" textLength="207.4" clip-path="url(#terminal-line-38)">2&#160;messages&#160;queued</text><text class="terminal-r17" x="280.6" y="947.2" textLength="390.4" clip-path="url(#terminal-line-38)">&#160;|&#160;pending:&#160;agent_a:1,&#160;agent_b:2</text><text class="terminal-r17" x="671" y="947.2" textLength="36.6" clip-path="url(#terminal-line-38)">&#160;|&#160;</text><text class="terminal-r17" x="707.6" y="947.2" textLength="122" clip-path="url(#terminal-line-38)">latest&#160;#2&#160;</text><text class="terminal-r17" x="829.6" y="947.2" textLength="280.6" clip-path="url(#terminal-line-38)">[parent&#160;-&gt;&#160;all&#160;agents]&#160;</text><text class="terminal-r18" x="1110.2" y="947.2" textLength="183" clip-path="url(#terminal-line-38)">Also&#160;include&#160;an</text><text class="terminal-r2" x="1403" y="947.2" textLength="183" clip-path="url(#terminal-line-38)">&#160;Cancel&#160;latest&#160;</text><text class="terminal-r2" x="1622.6" y="947.2" textLength="158.6" clip-path="url(#terminal-line-38)">&#160;Clear&#160;queue&#160;</text><text class="terminal-r1" x="1830" y="947.2" textLength="12.2" clip-path="url(#terminal-line-38)">
</text><text class="terminal-r1" x="1830" y="971.6" textLength="12.2" clip-path="url(#terminal-line-39)">
</text><text class="terminal-r19" x="12.2" y="996" textLength="36.6" clip-path="url(#terminal-line-40)">&#160;A&#160;</text><text class="terminal-r19" x="48.8" y="996" textLength="12.2" clip-path="url(#terminal-line-40)">·</text><text class="terminal-r21" x="85.4" y="996" textLength="24.4" clip-path="url(#terminal-line-40)">●&#160;</text><text class="terminal-r20" x="109.8" y="996" textLength="183" clip-path="url(#terminal-line-40)">Running&#160;(71s)&#160;&#160;</text><text class="terminal-r19" x="292.8" y="996" textLength="207.4" clip-path="url(#terminal-line-40)">esc:back&#160;•&#160;?:help</text><text class="terminal-r1" x="1830" y="996" textLength="12.2" clip-path="url(#terminal-line-40)">
</text><text class="terminal-r22" x="24.4" y="1020.4" textLength="1781.2" clip-path="url(#terminal-line-41)">╭────────────────────────────────────────────────────────────────────────────────────────────────────────────────────────────────────────────────╮</text><text class="terminal-r1" x="1830" y="1020.4" textLength="12.2" clip-path="url(#terminal-line-41)">
</text><text class="terminal-r22" x="24.4" y="1044.8" textLength="12.2" clip-path="url(#terminal-line-42)">│</text><text class="terminal-r23" x="48.8" y="1044.8" textLength="524.6" clip-path="url(#terminal-line-42)">Send&#160;message&#160;to&#160;subagent...&#160;(Enter&#160;to&#160;send)</text><text class="terminal-r24" x="1610.4" y="1044.8" textLength="158.6" clip-path="url(#terminal-line-42)">&#160;Inject:&#160;all&#160;</text><text class="terminal-r22" x="1793.4" y="1044.8" textLength="12.2" clip-path="url(#terminal-line-42)">│</text><text class="terminal-r1" x="1830" y="1044.8" textLength="12.2" clip-path="url(#terminal-line-42)">
</text><text class="terminal-r22" x="24.4" y="1069.2" textLength="1781.2" clip-path="url(#terminal-line-43)">╰────────────────────────────────────────────────────────────────────────────────────────────────────────────────────────────────────────────────╯</text>
    </g>
    </g>
</svg>
